<svg width="160" height="160" viewBox="0 0 160 160" fill="none" xmlns="http://www.w3.org/2000/svg">
<circle cx="3.5" cy="3.5" r="3.5" fill="#C4C4C4" fill-opacity="0.2"/>
<circle cx="20.5" cy="3.5" r="3.5" fill="#C4C4C4" fill-opacity="0.2"/>
<circle cx="37.5" cy="3.5" r="3.5" fill="#C4C4C4" fill-opacity="0.2"/>
<circle cx="54.5" cy="3.5" r="3.5" fill="#C4C4C4" fill-opacity="0.2"/>
<circle cx="71.5" cy="3.5" r="3.5" fill="#C4C4C4" fill-opacity="0.2"/>
<circle cx="88.5" cy="3.5" r="3.5" fill="#C4C4C4" fill-opacity="0.2"/>
<circle cx="105.5" cy="3.5" r="3.5" fill="#C4C4C4" fill-opacity="0.2"/>
<circle cx="122.5" cy="3.5" r="3.5" fill="#C4C4C4" fill-opacity="0.2"/>
<circle cx="139.5" cy="3.5" r="3.5" fill="#C4C4C4" fill-opacity="0.2"/>
<circle cx="156.5" cy="3.5" r="3.5" fill="#C4C4C4" fill-opacity="0.2"/>
<circle cx="3.5" cy="20.5" r="3.5" fill="#C4C4C4" fill-opacity="0.2"/>
<circle cx="20.5" cy="20.5" r="3.5" fill="#C4C4C4" fill-opacity="0.2"/>
<circle cx="37.5" cy="20.5" r="3.5" fill="#C4C4C4" fill-opacity="0.2"/>
<circle cx="54.5" cy="20.5" r="3.5" fill="#C4C4C4" fill-opacity="0.2"/>
<circle cx="71.5" cy="20.5" r="3.5" fill="#C4C4C4" fill-opacity="0.2"/>
<circle cx="88.5" cy="20.5" r="3.5" fill="#C4C4C4" fill-opacity="0.2"/>
<circle cx="105.5" cy="20.5" r="3.5" fill="#C4C4C4" fill-opacity="0.2"/>
<circle cx="122.5" cy="20.5" r="3.5" fill="#C4C4C4" fill-opacity="0.2"/>
<circle cx="139.5" cy="20.5" r="3.5" fill="#C4C4C4" fill-opacity="0.2"/>
<circle cx="156.5" cy="20.5" r="3.5" fill="#C4C4C4" fill-opacity="0.2"/>
<circle cx="3.5" cy="37.5" r="3.5" fill="#C4C4C4" fill-opacity="0.2"/>
<circle cx="20.5" cy="37.5" r="3.5" fill="#C4C4C4" fill-opacity="0.2"/>
<circle cx="37.5" cy="37.5" r="3.5" fill="#C4C4C4" fill-opacity="0.2"/>
<circle cx="54.5" cy="37.5" r="3.5" fill="#C4C4C4" fill-opacity="0.2"/>
<circle cx="71.5" cy="37.5" r="3.5" fill="#C4C4C4" fill-opacity="0.2"/>
<circle cx="88.5" cy="37.5" r="3.5" fill="#C4C4C4" fill-opacity="0.2"/>
<circle cx="105.5" cy="37.5" r="3.5" fill="#C4C4C4" fill-opacity="0.2"/>
<circle cx="122.5" cy="37.5" r="3.5" fill="#C4C4C4" fill-opacity="0.2"/>
<circle cx="139.5" cy="37.5" r="3.5" fill="#C4C4C4" fill-opacity="0.2"/>
<circle cx="156.5" cy="37.5" r="3.5" fill="#C4C4C4" fill-opacity="0.2"/>
<circle cx="3.5" cy="54.5" r="3.5" fill="#C4C4C4" fill-opacity="0.2"/>
<circle cx="20.5" cy="54.5" r="3.5" fill="#C4C4C4" fill-opacity="0.2"/>
<circle cx="37.5" cy="54.5" r="3.5" fill="#C4C4C4" fill-opacity="0.2"/>
<circle cx="54.5" cy="54.5" r="3.5" fill="#C4C4C4" fill-opacity="0.2"/>
<circle cx="71.5" cy="54.5" r="3.5" fill="#C4C4C4" fill-opacity="0.2"/>
<circle cx="88.5" cy="54.5" r="3.5" fill="#C4C4C4" fill-opacity="0.2"/>
<circle cx="105.5" cy="54.5" r="3.5" fill="#C4C4C4" fill-opacity="0.2"/>
<circle cx="122.5" cy="54.5" r="3.5" fill="#C4C4C4" fill-opacity="0.2"/>
<circle cx="139.5" cy="54.5" r="3.5" fill="#C4C4C4" fill-opacity="0.2"/>
<circle cx="156.5" cy="54.5" r="3.5" fill="#C4C4C4" fill-opacity="0.2"/>
<circle cx="3.5" cy="71.5" r="3.5" fill="#C4C4C4" fill-opacity="0.2"/>
<circle cx="20.5" cy="71.5" r="3.5" fill="#C4C4C4" fill-opacity="0.2"/>
<circle cx="37.5" cy="71.5" r="3.5" fill="#C4C4C4" fill-opacity="0.2"/>
<circle cx="54.5" cy="71.5" r="3.5" fill="#C4C4C4" fill-opacity="0.2"/>
<circle cx="71.5" cy="71.5" r="3.5" fill="#C4C4C4" fill-opacity="0.2"/>
<circle cx="88.5" cy="71.5" r="3.5" fill="#C4C4C4" fill-opacity="0.2"/>
<circle cx="105.5" cy="71.5" r="3.5" fill="#C4C4C4" fill-opacity="0.2"/>
<circle cx="122.5" cy="71.5" r="3.5" fill="#C4C4C4" fill-opacity="0.2"/>
<circle cx="139.5" cy="71.5" r="3.5" fill="#C4C4C4" fill-opacity="0.2"/>
<circle cx="156.5" cy="71.5" r="3.5" fill="#C4C4C4" fill-opacity="0.2"/>
<circle cx="3.5" cy="88.5" r="3.5" fill="#C4C4C4" fill-opacity="0.2"/>
<circle cx="20.5" cy="88.5" r="3.5" fill="#C4C4C4" fill-opacity="0.2"/>
<circle cx="37.5" cy="88.5" r="3.5" fill="#C4C4C4" fill-opacity="0.2"/>
<circle cx="54.5" cy="88.5" r="3.5" fill="#C4C4C4" fill-opacity="0.2"/>
<circle cx="71.5" cy="88.5" r="3.5" fill="#C4C4C4" fill-opacity="0.2"/>
<circle cx="88.5" cy="88.5" r="3.5" fill="#C4C4C4" fill-opacity="0.2"/>
<circle cx="105.5" cy="88.5" r="3.5" fill="#C4C4C4" fill-opacity="0.2"/>
<circle cx="122.5" cy="88.5" r="3.5" fill="#C4C4C4" fill-opacity="0.2"/>
<circle cx="139.5" cy="88.5" r="3.5" fill="#C4C4C4" fill-opacity="0.2"/>
<circle cx="156.5" cy="88.5" r="3.5" fill="#C4C4C4" fill-opacity="0.2"/>
<circle cx="3.5" cy="105.5" r="3.5" fill="#C4C4C4" fill-opacity="0.2"/>
<circle cx="20.5" cy="105.5" r="3.5" fill="#C4C4C4" fill-opacity="0.2"/>
<circle cx="37.5" cy="105.5" r="3.5" fill="#C4C4C4" fill-opacity="0.2"/>
<circle cx="54.5" cy="105.5" r="3.5" fill="#C4C4C4" fill-opacity="0.2"/>
<circle cx="71.5" cy="105.5" r="3.5" fill="#C4C4C4" fill-opacity="0.2"/>
<circle cx="88.5" cy="105.5" r="3.5" fill="#C4C4C4" fill-opacity="0.2"/>
<circle cx="105.5" cy="105.5" r="3.5" fill="#C4C4C4" fill-opacity="0.2"/>
<circle cx="122.5" cy="105.5" r="3.5" fill="#C4C4C4" fill-opacity="0.2"/>
<circle cx="139.5" cy="105.5" r="3.5" fill="#C4C4C4" fill-opacity="0.2"/>
<circle cx="156.5" cy="105.5" r="3.5" fill="#C4C4C4" fill-opacity="0.2"/>
<circle cx="3.5" cy="122.5" r="3.5" fill="#C4C4C4" fill-opacity="0.2"/>
<circle cx="20.5" cy="122.5" r="3.5" fill="#C4C4C4" fill-opacity="0.2"/>
<circle cx="37.5" cy="122.5" r="3.5" fill="#C4C4C4" fill-opacity="0.2"/>
<circle cx="54.5" cy="122.5" r="3.5" fill="#C4C4C4" fill-opacity="0.2"/>
<circle cx="71.5" cy="122.5" r="3.5" fill="#C4C4C4" fill-opacity="0.2"/>
<circle cx="88.5" cy="122.5" r="3.5" fill="#C4C4C4" fill-opacity="0.2"/>
<circle cx="105.5" cy="122.5" r="3.5" fill="#C4C4C4" fill-opacity="0.2"/>
<circle cx="122.5" cy="122.5" r="3.5" fill="#C4C4C4" fill-opacity="0.2"/>
<circle cx="139.5" cy="122.5" r="3.5" fill="#C4C4C4" fill-opacity="0.2"/>
<circle cx="156.5" cy="122.5" r="3.5" fill="#C4C4C4" fill-opacity="0.2"/>
<circle cx="3.5" cy="139.5" r="3.5" fill="#C4C4C4" fill-opacity="0.2"/>
<circle cx="20.5" cy="139.5" r="3.5" fill="#C4C4C4" fill-opacity="0.2"/>
<circle cx="37.5" cy="139.5" r="3.5" fill="#C4C4C4" fill-opacity="0.2"/>
<circle cx="54.5" cy="139.5" r="3.5" fill="#C4C4C4" fill-opacity="0.2"/>
<circle cx="71.5" cy="139.5" r="3.5" fill="#C4C4C4" fill-opacity="0.2"/>
<circle cx="88.5" cy="139.5" r="3.5" fill="#C4C4C4" fill-opacity="0.2"/>
<circle cx="105.5" cy="139.5" r="3.5" fill="#C4C4C4" fill-opacity="0.2"/>
<circle cx="122.5" cy="139.5" r="3.5" fill="#C4C4C4" fill-opacity="0.2"/>
<circle cx="139.5" cy="139.5" r="3.5" fill="#C4C4C4" fill-opacity="0.2"/>
<circle cx="156.5" cy="139.5" r="3.5" fill="#C4C4C4" fill-opacity="0.2"/>
<circle cx="3.5" cy="156.5" r="3.5" fill="#C4C4C4" fill-opacity="0.2"/>
<circle cx="20.5" cy="156.5" r="3.5" fill="#C4C4C4" fill-opacity="0.2"/>
<circle cx="37.5" cy="156.5" r="3.5" fill="#C4C4C4" fill-opacity="0.2"/>
<circle cx="54.5" cy="156.5" r="3.5" fill="#C4C4C4" fill-opacity="0.2"/>
<circle cx="71.5" cy="156.5" r="3.5" fill="#C4C4C4" fill-opacity="0.2"/>
<circle cx="88.5" cy="156.5" r="3.5" fill="#C4C4C4" fill-opacity="0.2"/>
<circle cx="105.5" cy="156.5" r="3.5" fill="#C4C4C4" fill-opacity="0.2"/>
<circle cx="122.5" cy="156.5" r="3.5" fill="#C4C4C4" fill-opacity="0.2"/>
<circle cx="139.5" cy="156.5" r="3.5" fill="#C4C4C4" fill-opacity="0.2"/>
<circle cx="156.5" cy="156.5" r="3.5" fill="#C4C4C4" fill-opacity="0.2"/>
</svg>
